<svg id="tw" xmlns="http://www.w3.org/2000/svg" width="40" height="40" viewBox="0 0 30 30">
  <defs>
    <style>
      .cls-1 {
        fill: #fff;
      }

      .cls-1, .cls-2 {
        fill-rule: evenodd;
      }

      .cls-2 {
        fill: #3DA9F5;
      }
    </style>
  </defs>
  <path id="楕円形_26" data-name="楕円形 26" class="cls-1" d="M2619.92,3841a15,15,0,1,1,15.08-14.92A14.993,14.993,0,0,1,2619.92,3841Z" transform="translate(-2605 -3811)"/>
  <path id="パス_235" data-name="パス 235" class="cls-2" d="M2618.08,3831.57a7.539,7.539,0,0,0,7.59-7.59v-0.35a5.3,5.3,0,0,0,1.33-1.38,5.257,5.257,0,0,1-1.53.42,2.662,2.662,0,0,0,1.17-1.48,5.165,5.165,0,0,1-1.69.65,2.674,2.674,0,0,0-4.62,1.83,2.483,2.483,0,0,0,.07.61,7.591,7.591,0,0,1-5.5-2.79,2.735,2.735,0,0,0-.36,1.34,2.668,2.668,0,0,0,1.19,2.22,2.7,2.7,0,0,1-1.2-.34v0.04a2.652,2.652,0,0,0,2.14,2.61,2.344,2.344,0,0,1-.71.1,2.825,2.825,0,0,1-.5-0.05,2.661,2.661,0,0,0,2.49,1.85,5.308,5.308,0,0,1-3.31,1.14,4.49,4.49,0,0,1-.64-0.04A7.385,7.385,0,0,0,2618.08,3831.57Z" transform="translate(-2605 -3811)"/>
</svg>
